<?xml version="1.0" standalone="no"?>
<!DOCTYPE svg PUBLIC "-//W3C//DTD SVG 20010904//EN"
 "http://www.w3.org/TR/2001/REC-SVG-20010904/DTD/svg10.dtd">
<svg version="1.0" xmlns="http://www.w3.org/2000/svg"
 width="256.000000pt" height="256.000000pt" viewBox="0 0 256.000000 256.000000"
 preserveAspectRatio="xMidYMid meet">
<metadata>
Created by potrace 1.14, written by Peter Selinger 2001-2017
</metadata>
<g transform="translate(0.000000,256.000000) scale(0.100000,-0.100000)"
fill="#000000" stroke="none">
<path d="M860 1705 c-10 -12 -10 -15 4 -15 9 0 16 7 16 15 0 8 -2 15 -4 15 -2
0 -9 -7 -16 -15z"/>
<path d="M1765 1699 c-107 -17 -199 -72 -326 -195 -63 -61 -64 -60 -94 20 -21
59 -84 130 -137 157 -24 12 -58 19 -98 19 -107 0 -226 -63 -364 -191 -40 -38
-76 -66 -80 -62 -3 3 -6 40 -6 82 -1 50 -7 88 -18 111 -16 33 -21 35 -71 38
-41 2 -65 -3 -105 -22 -57 -28 -141 -104 -152 -138 -10 -31 15 -40 48 -17 42
31 89 35 118 11 l25 -20 1 -234 c0 -251 -3 -286 -35 -329 -12 -16 -21 -38 -21
-50 l0 -22 143 9 c78 5 401 9 717 9 605 1 649 4 734 47 48 24 146 120 146 143
0 27 -26 27 -65 1 -47 -32 -90 -45 -182 -53 -63 -5 -73 -4 -73 10 0 9 5 19 10
22 17 10 83 105 112 160 56 106 68 251 29 340 -48 110 -150 171 -256 154z
m-700 -172 c32 -16 95 -79 112 -112 43 -82 54 -195 27 -286 -20 -66 -49 -101
-84 -97 -14 1 -30 -1 -35 -4 -6 -4 -75 -9 -153 -12 -78 -3 -153 -8 -166 -12
-14 -3 -33 -1 -43 4 -12 7 -24 7 -36 0 -33 -17 -47 8 -37 67 5 28 9 76 9 107
1 36 6 62 16 72 19 18 35 60 35 91 0 30 87 138 106 131 8 -3 19 4 25 15 14 28
74 52 109 44 16 -3 31 -2 35 4 7 12 46 6 80 -12z m626 10 c27 4 47 0 66 -12
86 -54 123 -119 125 -221 3 -99 -10 -152 -44 -190 -10 -12 -18 -25 -16 -30 2
-5 -1 -10 -7 -11 -6 -2 -10 26 -10 67 0 56 -3 70 -15 70 -12 0 -15 -13 -13
-62 2 -35 5 -72 8 -83 5 -17 -1 -23 -28 -33 -18 -7 -52 -12 -75 -12 l-41 0 2
95 c2 79 0 95 -13 95 -12 0 -15 -16 -13 -95 l3 -95 -70 0 -69 0 2 95 c2 79 0
95 -13 95 -12 0 -15 -16 -12 -95 l3 -95 -66 -1 c-36 -1 -71 -2 -77 -3 -9 -1
-12 15 -10 54 3 57 26 120 42 120 6 0 10 14 10 30 0 17 4 38 9 48 5 9 23 46
40 81 40 79 99 143 154 166 23 9 49 21 57 25 8 4 19 4 23 0 5 -4 26 -6 48 -3z"/>
<path d="M951 1297 c-6 -8 -8 -23 -4 -32 5 -15 2 -17 -15 -13 -31 8 -28 -13 6
-45 l28 -27 27 28 c34 35 34 42 -1 76 -24 22 -31 25 -41 13z"/>
</g>
</svg>
